<?xml version="1.0" encoding="iso-8859-1"?>
<svg version="1.1" xmlns="http://www.w3.org/2000/svg" xmlns:xlink="http://www.w3.org/1999/xlink" x="0px" y="0px" viewBox="0 0 512 512" style="enable-background:new 0 0 512 512;" xml:space="preserve">
<g><path d="M437.313,189.201c-7.88-83.684-78.535-149.379-164.246-149.379S116.702,105.518,108.82,189.201 c-42.422,7.72-74.687,44.94-74.687,89.555h34.133c0-31.369,25.52-56.889,56.889-56.889h17.067V204.8 c0-72.148,58.697-130.844,130.844-130.844S403.911,132.652,403.911,204.8v17.067h17.067c31.369,0,56.889,25.52,56.889,56.889 s-25.52,56.889-56.889,56.889h-85.333v34.133h85.333c50.19,0,91.022-40.833,91.022-91.022 C512,234.141,479.735,196.921,437.313,189.201z"/></g>
<g><path d="M204.8,347.022H0v34.133h204.8c15.684,0,28.444,12.76,28.444,28.444c0,15.684-12.76,28.444-28.444,28.444 s-28.444-12.76-28.444-28.444h-34.133c0,34.505,28.072,62.578,62.578,62.578s62.578-28.072,62.578-62.578 C267.378,375.095,239.305,347.022,204.8,347.022z"/></g>
<g> <path d="M273.067,210.489c-34.505,0-62.578,28.072-62.578,62.578h34.133c0-15.684,12.76-28.444,28.444-28.444 s28.444,12.76,28.444,28.444s-12.76,28.444-28.444,28.444H0v34.133h273.067c34.505,0,62.578-28.072,62.578-62.578 C335.644,238.561,307.572,210.489,273.067,210.489z"/></g>
</svg>
